<?xml version="1.0" encoding="UTF-8" standalone="no"?>
<!-- Created with Inkscape (http://www.inkscape.org/) -->

<svg
   xmlns:dc="http://purl.org/dc/elements/1.1/"
   xmlns:cc="http://creativecommons.org/ns#"
   xmlns:rdf="http://www.w3.org/1999/02/22-rdf-syntax-ns#"
   xmlns:svg="http://www.w3.org/2000/svg"
   xmlns="http://www.w3.org/2000/svg"
   xmlns:sodipodi="http://sodipodi.sourceforge.net/DTD/sodipodi-0.dtd"
   xmlns:inkscape="http://www.inkscape.org/namespaces/inkscape"
   width="364.41"
   height="314.79001"
   id="svg8539"
   version="1.1"
   inkscape:version="0.48.2 r9819"
   sodipodi:docname="setops.svg">
  <defs
     id="defs8541" />
  <sodipodi:namedview
     id="base"
     pagecolor="#ffffff"
     bordercolor="#666666"
     borderopacity="1.0"
     inkscape:pageopacity="0.0"
     inkscape:pageshadow="2"
     inkscape:zoom="0.7"
     inkscape:cx="253.20643"
     inkscape:cy="11.458959"
     inkscape:document-units="px"
     inkscape:current-layer="layer1"
     showgrid="false"
     fit-margin-top="0"
     fit-margin-left="0"
     fit-margin-right="0"
     fit-margin-bottom="0"
     inkscape:window-width="1010"
     inkscape:window-height="763"
     inkscape:window-x="100"
     inkscape:window-y="20"
     inkscape:window-maximized="0" />
  <metadata
     id="metadata8544">
    <rdf:RDF>
      <cc:Work
         rdf:about="">
        <dc:format>image/svg+xml</dc:format>
        <dc:type
           rdf:resource="http://purl.org/dc/dcmitype/StillImage" />
        <dc:title></dc:title>
      </cc:Work>
    </rdf:RDF>
  </metadata>
  <g
     inkscape:label="Layer 1"
     inkscape:groupmode="layer"
     id="layer1"
     transform="translate(-73.22214,-229.03119)">
    <path
       sodipodi:type="arc"
       style="fill:none;stroke:#000000;stroke-width:0.39199999;stroke-miterlimit:4;stroke-opacity:1;stroke-dasharray:none"
       id="path8553"
       sodipodi:cx="168.57143"
       sodipodi:cy="308.07648"
       sodipodi:rx="82.85714"
       sodipodi:ry="72.85714"
       d="m 251.42857,308.07648 a 82.85714,72.85714 0 1 1 -165.714283,0 82.85714,72.85714 0 1 1 165.714283,0 z"
       transform="matrix(0.75469256,0,0,0.75469256,21.473879,53.652974)" />
    <path
       sodipodi:type="arc"
       style="fill:none;stroke:#000000;stroke-width:0.39199999;stroke-miterlimit:4;stroke-opacity:1;stroke-dasharray:none"
       id="path8555"
       sodipodi:cx="177.14285"
       sodipodi:cy="483.79074"
       sodipodi:rx="105.71429"
       sodipodi:ry="68.571426"
       d="m 282.85714,483.79074 a 105.71429,68.571426 0 1 1 -211.428574,0 105.71429,68.571426 0 1 1 211.428574,0 z"
       transform="matrix(0.75469256,0,0,0.75469256,21.473879,53.652974)" />
    <path
       sodipodi:type="arc"
       style="fill:none;stroke:#000000;stroke-width:0.39199999;stroke-miterlimit:4;stroke-opacity:1;stroke-dasharray:none"
       id="path8557"
       sodipodi:cx="368.57144"
       sodipodi:cy="413.79074"
       sodipodi:rx="77.14286"
       sodipodi:ry="81.428574"
       d="m 445.7143,413.79074 a 77.14286,81.428574 0 1 1 -154.28572,0 77.14286,81.428574 0 1 1 154.28572,0 z"
       transform="matrix(0.75469256,0,0,0.75469256,21.473879,53.652974)" />
    <path
       sodipodi:type="arc"
       style="fill:none;stroke:#000000;stroke-width:0.39199999;stroke-miterlimit:4;stroke-opacity:1;stroke-dasharray:none"
       id="path8559"
       sodipodi:cx="295.71429"
       sodipodi:cy="356.64789"
       sodipodi:rx="87.14286"
       sodipodi:ry="67.14286"
       d="m 382.85715,356.64789 a 87.14286,67.14286 0 1 1 -174.28572,0 87.14286,67.14286 0 1 1 174.28572,0 z"
       transform="matrix(0.75469256,0,0,0.75469256,21.473879,53.652974)" />
    <path
       sodipodi:type="arc"
       style="fill:none;stroke:#000000;stroke-width:0.39199999;stroke-miterlimit:4;stroke-opacity:1;stroke-dasharray:none"
       id="path8561"
       sodipodi:cx="288.57144"
       sodipodi:cy="550.93359"
       sodipodi:rx="105.71429"
       sodipodi:ry="95.714287"
       d="m 394.28573,550.93359 a 105.71429,95.714287 0 1 1 -211.42858,0 105.71429,95.714287 0 1 1 211.42858,0 z"
       transform="matrix(0.75469256,0,0,0.75469256,21.473879,53.652974)" />
    <path
       sodipodi:type="arc"
       style="fill:none;stroke:#000000;stroke-width:0.39199999;stroke-miterlimit:4;stroke-opacity:1;stroke-dasharray:none"
       id="path8563"
       sodipodi:cx="442.85715"
       sodipodi:cy="509.50504"
       sodipodi:rx="105.71429"
       sodipodi:ry="80"
       d="m 548.57143,509.50504 a 105.71429,80 0 1 1 -211.42857,0 105.71429,80 0 1 1 211.42857,0 z"
       transform="matrix(0.75469256,0,0,0.75469256,21.473879,53.652974)" />
    <text
       xml:space="preserve"
       style="font-size:21.13139153px;font-style:normal;font-weight:normal;line-height:125%;letter-spacing:0px;word-spacing:0px;fill:#000000;fill-opacity:1;stroke:none;font-family:Sans"
       x="112.03699"
       y="287.23413"
       id="text8565"
       sodipodi:linespacing="125%"><tspan
         sodipodi:role="line"
         id="tspan8567"
         x="112.03699"
         y="287.23413">set1</tspan></text>
    <text
       xml:space="preserve"
       style="font-size:21.13139153px;font-style:normal;font-weight:normal;line-height:125%;letter-spacing:0px;word-spacing:0px;fill:#000000;fill-opacity:1;stroke:none;font-family:Sans"
       x="105.56819"
       y="414.45374"
       id="text8569"
       sodipodi:linespacing="125%"><tspan
         sodipodi:role="line"
         id="tspan8571"
         x="105.56819"
         y="414.45374">set2</tspan></text>
    <text
       sodipodi:linespacing="125%"
       id="text8573"
       y="302.32797"
       x="224.16275"
       style="font-size:21.13139153px;font-style:normal;font-weight:normal;line-height:125%;letter-spacing:0px;word-spacing:0px;fill:#000000;fill-opacity:1;stroke:none;font-family:Sans"
       xml:space="preserve"><tspan
         y="302.32797"
         x="224.16275"
         id="tspan8575"
         sodipodi:role="line">set4</tspan></text>
    <text
       xml:space="preserve"
       style="font-size:21.13139153px;font-style:normal;font-weight:normal;line-height:125%;letter-spacing:0px;word-spacing:0px;fill:#000000;fill-opacity:1;stroke:none;font-family:Sans"
       x="299.63199"
       y="367.0159"
       id="text8577"
       sodipodi:linespacing="125%"><tspan
         sodipodi:role="line"
         id="tspan8579"
         x="299.63199"
         y="367.0159">set5</tspan></text>
    <text
       sodipodi:linespacing="125%"
       id="text8581"
       y="459.73529"
       x="364.31995"
       style="font-size:21.13139153px;font-style:normal;font-weight:normal;line-height:125%;letter-spacing:0px;word-spacing:0px;fill:#000000;fill-opacity:1;stroke:none;font-family:Sans"
       xml:space="preserve"><tspan
         y="459.73529"
         x="364.31995"
         id="tspan8583"
         sodipodi:role="line">set6</tspan></text>
    <text
       xml:space="preserve"
       style="font-size:21.13139153px;font-style:normal;font-weight:normal;line-height:125%;letter-spacing:0px;word-spacing:0px;fill:#000000;fill-opacity:1;stroke:none;font-family:Sans"
       x="219.85023"
       y="492.07922"
       id="text8585"
       sodipodi:linespacing="125%"><tspan
         sodipodi:role="line"
         id="tspan8587"
         x="219.85023"
         y="492.07922">set3</tspan></text>
    <path
       style="fill:#ff0000;fill-opacity:1;stroke:none"
       d="m 179.94315,328.10749 c -1.86398,-11.03283 3.29198,-25.38342 12.38835,-34.48052 4.7255,-4.72587 15.81529,-12.86164 17.5316,-12.86164 0.45264,0 0.82299,1.87442 0.82299,4.16537 0,16.05876 -8.38883,32.11442 -21.98151,42.07114 -8.25637,6.04784 -7.93334,6.00708 -8.76143,1.10565 z"
       id="path9116"
       inkscape:connector-curvature="0" />
    <path
       style="fill:#ff0000;fill-opacity:1;fill-rule:nonzero;stroke:#000000;stroke-width:0.42262784;stroke-miterlimit:4;stroke-opacity:1;stroke-dasharray:none"
       d="m 307.41483,485.16799 c -17.79216,-10.71388 -28.51784,-25.82389 -30.53922,-43.02271 -0.84531,-7.19222 1.3026,-18.38415 3.37555,-17.58868 4.21364,1.61693 10.42861,2.81878 16.6855,3.22666 l 7.00786,0.45683 4.42223,7.09177 c 6.8266,10.94755 9.49977,20.53772 9.50691,34.10661 0.005,10.49992 -1.63033,19.40638 -3.56438,19.40638 -0.43363,0 -3.53613,-1.65459 -6.89445,-3.67686 l 0,0 z"
       id="path9120"
       inkscape:connector-curvature="0" />
    <path
       style="fill:#ff0000;fill-opacity:1;fill-rule:nonzero;stroke:#000000;stroke-width:0.42262784;stroke-miterlimit:4;stroke-opacity:1;stroke-dasharray:none"
       d="m 270.41968,417.88561 c -7.66729,-4.95561 -19.78174,-17.81279 -17.26931,-18.32808 2.90838,-0.5965 14.8738,2.98108 22.92981,6.85586 l 7.78226,3.74313 -2.89654,5.85543 c -1.59311,3.22048 -3.18521,5.88542 -3.538,5.92206 -0.3528,0.0367 -3.50649,-1.78512 -7.00822,-4.0484 l 0,0 z"
       id="path9122"
       inkscape:connector-curvature="0" />
    <path
       style="fill:#ff0000;fill-opacity:1;fill-rule:nonzero;stroke:#000000;stroke-width:0.42262784;stroke-miterlimit:4;stroke-opacity:1;stroke-dasharray:none"
       d="m 285.86836,424.78545 c -2.82623,-0.76021 -5.40086,-1.64446 -5.72141,-1.96502 -0.64059,-0.64059 3.6227,-10.25392 4.8965,-11.04117 0.97966,-0.60546 16.20574,12.086 16.20574,13.50802 0,1.44616 -9.26233,1.14395 -15.38083,-0.50183 z"
       id="path9124"
       inkscape:connector-curvature="0" />
  </g>
</svg>
