<?xml version="1.0" encoding="UTF-8" standalone="no"?>
<!-- Created with Inkscape (http://www.inkscape.org/) -->

<svg
   xmlns:dc="http://purl.org/dc/elements/1.1/"
   xmlns:cc="http://creativecommons.org/ns#"
   xmlns:rdf="http://www.w3.org/1999/02/22-rdf-syntax-ns#"
   xmlns:svg="http://www.w3.org/2000/svg"
   xmlns="http://www.w3.org/2000/svg"
   xmlns:sodipodi="http://sodipodi.sourceforge.net/DTD/sodipodi-0.dtd"
   xmlns:inkscape="http://www.inkscape.org/namespaces/inkscape"
   width="480.56"
   height="414.81"
   id="svg8539"
   version="1.1"
   inkscape:version="0.48.2 r9819"
   sodipodi:docname="setops.svg">
  <defs
     id="defs8541" />
  <sodipodi:namedview
     id="base"
     pagecolor="#ffffff"
     bordercolor="#666666"
     borderopacity="1.0"
     inkscape:pageopacity="0.0"
     inkscape:pageshadow="2"
     inkscape:zoom="0.7"
     inkscape:cx="255.20982"
     inkscape:cy="114.48157"
     inkscape:document-units="px"
     inkscape:current-layer="layer1"
     showgrid="false"
     fit-margin-top="0"
     fit-margin-left="0"
     fit-margin-right="0"
     fit-margin-bottom="0"
     inkscape:window-width="1010"
     inkscape:window-height="763"
     inkscape:window-x="100"
     inkscape:window-y="20"
     inkscape:window-maximized="0" />
  <metadata
     id="metadata8544">
    <rdf:RDF>
      <cc:Work
         rdf:about="">
        <dc:format>image/svg+xml</dc:format>
        <dc:type
           rdf:resource="http://purl.org/dc/dcmitype/StillImage" />
        <dc:title></dc:title>
      </cc:Work>
    </rdf:RDF>
  </metadata>
  <g
     inkscape:label="Layer 1"
     inkscape:groupmode="layer"
     id="layer1"
     transform="translate(-71.21875,-232.03375)">
    <path
       sodipodi:type="arc"
       style="fill:none;stroke:#000000;stroke-width:0.39199999;stroke-miterlimit:4;stroke-opacity:1;stroke-dasharray:none"
       id="path8553"
       sodipodi:cx="168.57143"
       sodipodi:cy="308.07648"
       sodipodi:rx="82.85714"
       sodipodi:ry="72.85714"
       d="m 251.42857,308.07648 a 82.85714,72.85714 0 1 1 -165.714283,0 82.85714,72.85714 0 1 1 165.714283,0 z"
       transform="translate(2,-2)" />
    <path
       sodipodi:type="arc"
       style="fill:none;stroke:#000000;stroke-width:0.39199999;stroke-miterlimit:4;stroke-opacity:1;stroke-dasharray:none"
       id="path8555"
       sodipodi:cx="177.14285"
       sodipodi:cy="483.79074"
       sodipodi:rx="105.71429"
       sodipodi:ry="68.571426"
       d="m 282.85714,483.79074 a 105.71429,68.571426 0 1 1 -211.428574,0 105.71429,68.571426 0 1 1 211.428574,0 z"
       transform="translate(2,-2)" />
    <path
       sodipodi:type="arc"
       style="fill:none;stroke:#000000;stroke-width:0.39199999;stroke-miterlimit:4;stroke-opacity:1;stroke-dasharray:none"
       id="path8557"
       sodipodi:cx="368.57144"
       sodipodi:cy="413.79074"
       sodipodi:rx="77.14286"
       sodipodi:ry="81.428574"
       d="m 445.7143,413.79074 a 77.14286,81.428574 0 1 1 -154.28572,0 77.14286,81.428574 0 1 1 154.28572,0 z"
       transform="translate(2,-2)" />
    <path
       sodipodi:type="arc"
       style="fill:none;stroke:#000000;stroke-width:0.39199999;stroke-miterlimit:4;stroke-opacity:1;stroke-dasharray:none"
       id="path8559"
       sodipodi:cx="295.71429"
       sodipodi:cy="356.64789"
       sodipodi:rx="87.14286"
       sodipodi:ry="67.14286"
       d="m 382.85715,356.64789 a 87.14286,67.14286 0 1 1 -174.28572,0 87.14286,67.14286 0 1 1 174.28572,0 z"
       transform="translate(2,-2)" />
    <path
       sodipodi:type="arc"
       style="fill:none;stroke:#000000;stroke-width:0.39199999;stroke-miterlimit:4;stroke-opacity:1;stroke-dasharray:none"
       id="path8561"
       sodipodi:cx="288.57144"
       sodipodi:cy="550.93359"
       sodipodi:rx="105.71429"
       sodipodi:ry="95.714287"
       d="m 394.28573,550.93359 a 105.71429,95.714287 0 1 1 -211.42858,0 105.71429,95.714287 0 1 1 211.42858,0 z"
       transform="translate(2,-2)" />
    <path
       sodipodi:type="arc"
       style="fill:none;stroke:#000000;stroke-width:0.39199999;stroke-miterlimit:4;stroke-opacity:1;stroke-dasharray:none"
       id="path8563"
       sodipodi:cx="442.85715"
       sodipodi:cy="509.50504"
       sodipodi:rx="105.71429"
       sodipodi:ry="80"
       d="m 548.57143,509.50504 a 105.71429,80 0 1 1 -211.42857,0 105.71429,80 0 1 1 211.42857,0 z"
       transform="translate(2,-2)" />
    <text
       xml:space="preserve"
       style="font-size:28px;font-style:normal;font-weight:normal;line-height:125%;letter-spacing:0px;word-spacing:0px;fill:#000000;fill-opacity:1;stroke:none;font-family:Sans"
       x="122"
       y="307.50504"
       id="text8565"
       sodipodi:linespacing="125%"><tspan
         sodipodi:role="line"
         id="tspan8567"
         x="122"
         y="307.50504">set1</tspan></text>
    <text
       xml:space="preserve"
       style="font-size:28px;font-style:normal;font-weight:normal;line-height:125%;letter-spacing:0px;word-spacing:0px;fill:#000000;fill-opacity:1;stroke:none;font-family:Sans"
       x="113.42857"
       y="476.07648"
       id="text8569"
       sodipodi:linespacing="125%"><tspan
         sodipodi:role="line"
         id="tspan8571"
         x="113.42857"
         y="476.07648">set2</tspan></text>
    <text
       sodipodi:linespacing="125%"
       id="text8573"
       y="327.50504"
       x="270.57144"
       style="font-size:28px;font-style:normal;font-weight:normal;line-height:125%;letter-spacing:0px;word-spacing:0px;fill:#000000;fill-opacity:1;stroke:none;font-family:Sans"
       xml:space="preserve"><tspan
         y="327.50504"
         x="270.57144"
         id="tspan8575"
         sodipodi:role="line">set4</tspan></text>
    <text
       xml:space="preserve"
       style="font-size:28px;font-style:normal;font-weight:normal;line-height:125%;letter-spacing:0px;word-spacing:0px;fill:#000000;fill-opacity:1;stroke:none;font-family:Sans"
       x="370.57144"
       y="413.21933"
       id="text8577"
       sodipodi:linespacing="125%"><tspan
         sodipodi:role="line"
         id="tspan8579"
         x="370.57144"
         y="413.21933">set5</tspan></text>
    <text
       sodipodi:linespacing="125%"
       id="text8581"
       y="536.07648"
       x="456.28574"
       style="font-size:28px;font-style:normal;font-weight:normal;line-height:125%;letter-spacing:0px;word-spacing:0px;fill:#000000;fill-opacity:1;stroke:none;font-family:Sans"
       xml:space="preserve"><tspan
         y="536.07648"
         x="456.28574"
         id="tspan8583"
         sodipodi:role="line">set6</tspan></text>
    <text
       xml:space="preserve"
       style="font-size:28px;font-style:normal;font-weight:normal;line-height:125%;letter-spacing:0px;word-spacing:0px;fill:#000000;fill-opacity:1;stroke:none;font-family:Sans"
       x="264.85718"
       y="578.93359"
       id="text8585"
       sodipodi:linespacing="125%"><tspan
         sodipodi:role="line"
         id="tspan8587"
         x="264.85718"
         y="578.93359">set3</tspan></text>
    <path
       style="fill:#ff0000;fill-opacity:1;stroke:none"
       d="m 211.97858,361.664 c -2.46985,-14.61897 4.36201,-33.63412 16.4151,-45.68817 6.26148,-6.26198 20.95593,-17.04222 23.23011,-17.04222 0.59977,0 1.0905,2.48369 1.0905,5.5193 0,21.27854 -11.11556,42.55298 -29.12644,55.74606 -10.94004,8.01365 -10.51201,7.95964 -11.60927,1.46503 z"
       id="path9116"
       inkscape:connector-curvature="0" />
    <path
       style="fill:#ff0000;fill-opacity:1;fill-rule:nonzero;stroke:#000000;stroke-width:0.56;stroke-miterlimit:4;stroke-opacity:1;stroke-dasharray:none"
       d="m 380.88402,569.7759 c -23.57537,-14.19635 -37.78736,-34.21776 -40.46578,-57.00693 -1.12006,-9.53 1.72601,-24.35979 4.47275,-23.30576 5.58326,2.1425 13.81836,3.73501 22.10901,4.27546 l 9.28571,0.60532 5.85965,9.3969 c 9.04553,14.50597 12.5876,27.21336 12.59706,45.19272 0.007,13.91285 -2.16026,25.71429 -4.72296,25.71429 -0.57458,0 -4.68552,-2.1924 -9.13544,-4.872 l 0,0 z"
       id="path9120"
       inkscape:connector-curvature="0" />
    <path
       style="fill:#ff0000;fill-opacity:1;fill-rule:nonzero;stroke:#000000;stroke-width:0.56;stroke-miterlimit:4;stroke-opacity:1;stroke-dasharray:none"
       d="m 331.86386,480.62386 c -10.15949,-6.5664 -26.21165,-23.60271 -22.88257,-24.28549 3.85373,-0.79039 19.70842,3.95006 30.38298,9.08431 l 10.31183,4.9598 -3.83805,7.7587 c -2.11093,4.26728 -4.22053,7.79843 -4.688,7.84699 -0.46747,0.0486 -4.64625,-2.36537 -9.28619,-5.36431 l 0,0 z"
       id="path9122"
       inkscape:connector-curvature="0" />
    <path
       style="fill:#ff0000;fill-opacity:1;fill-rule:nonzero;stroke:#000000;stroke-width:0.56;stroke-miterlimit:4;stroke-opacity:1;stroke-dasharray:none"
       d="m 352.33402,489.76645 c -3.74487,-1.00731 -7.15637,-2.17899 -7.58111,-2.60374 -0.84881,-0.84881 4.80024,-13.58688 6.48808,-14.63003 1.29808,-0.80226 21.4733,16.01447 21.4733,17.89871 0,1.91622 -12.27299,1.51579 -20.38027,-0.66494 z"
       id="path9124"
       inkscape:connector-curvature="0" />
  </g>
</svg>
