<?xml version="1.0" encoding="UTF-8" standalone="no"?>
<!-- Created with Inkscape (http://www.inkscape.org/) -->

<svg
   xmlns:dc="http://purl.org/dc/elements/1.1/"
   xmlns:cc="http://creativecommons.org/ns#"
   xmlns:rdf="http://www.w3.org/1999/02/22-rdf-syntax-ns#"
   xmlns:svg="http://www.w3.org/2000/svg"
   xmlns="http://www.w3.org/2000/svg"
   xmlns:sodipodi="http://sodipodi.sourceforge.net/DTD/sodipodi-0.dtd"
   xmlns:inkscape="http://www.inkscape.org/namespaces/inkscape"
   width="212.14"
   height="183.48"
   id="svg8539"
   version="1.1"
   inkscape:version="0.48.2 r9819"
   sodipodi:docname="setops.svg">
  <defs
     id="defs8541" />
  <sodipodi:namedview
     id="base"
     pagecolor="#ffffff"
     bordercolor="#666666"
     borderopacity="1.0"
     inkscape:pageopacity="0.0"
     inkscape:pageshadow="2"
     inkscape:zoom="0.7"
     inkscape:cx="249.20203"
     inkscape:cy="-123.85197"
     inkscape:document-units="px"
     inkscape:current-layer="layer1"
     showgrid="false"
     fit-margin-top="0"
     fit-margin-left="0"
     fit-margin-right="0"
     fit-margin-bottom="0"
     inkscape:window-width="1010"
     inkscape:window-height="763"
     inkscape:window-x="100"
     inkscape:window-y="20"
     inkscape:window-maximized="0" />
  <metadata
     id="metadata8544">
    <rdf:RDF>
      <cc:Work
         rdf:about="">
        <dc:format>image/svg+xml</dc:format>
        <dc:type
           rdf:resource="http://purl.org/dc/dcmitype/StillImage" />
        <dc:title></dc:title>
      </cc:Work>
    </rdf:RDF>
  </metadata>
  <g
     inkscape:label="Layer 1"
     inkscape:groupmode="layer"
     id="layer1"
     transform="translate(-77.226544,-225.03028)">
    <path
       sodipodi:type="arc"
       style="fill:none;stroke:#000000;stroke-width:0.39199999;stroke-miterlimit:4;stroke-opacity:1;stroke-dasharray:none"
       id="path8553"
       sodipodi:cx="168.57143"
       sodipodi:cy="308.07648"
       sodipodi:rx="82.85714"
       sodipodi:ry="72.85714"
       d="m 251.42857,308.07648 a 82.85714,72.85714 0 1 1 -165.714283,0 82.85714,72.85714 0 1 1 165.714283,0 z"
       transform="matrix(0.43583787,0,0,0.43583787,48.186716,124.59127)" />
    <path
       sodipodi:type="arc"
       style="fill:none;stroke:#000000;stroke-width:0.39199999;stroke-miterlimit:4;stroke-opacity:1;stroke-dasharray:none"
       id="path8555"
       sodipodi:cx="177.14285"
       sodipodi:cy="483.79074"
       sodipodi:rx="105.71429"
       sodipodi:ry="68.571426"
       d="m 282.85714,483.79074 a 105.71429,68.571426 0 1 1 -211.428574,0 105.71429,68.571426 0 1 1 211.428574,0 z"
       transform="matrix(0.43583787,0,0,0.43583787,48.186716,124.59127)" />
    <path
       sodipodi:type="arc"
       style="fill:none;stroke:#000000;stroke-width:0.39199999;stroke-miterlimit:4;stroke-opacity:1;stroke-dasharray:none"
       id="path8557"
       sodipodi:cx="368.57144"
       sodipodi:cy="413.79074"
       sodipodi:rx="77.14286"
       sodipodi:ry="81.428574"
       d="m 445.7143,413.79074 a 77.14286,81.428574 0 1 1 -154.28572,0 77.14286,81.428574 0 1 1 154.28572,0 z"
       transform="matrix(0.43583787,0,0,0.43583787,48.186716,124.59127)" />
    <path
       sodipodi:type="arc"
       style="fill:none;stroke:#000000;stroke-width:0.39199999;stroke-miterlimit:4;stroke-opacity:1;stroke-dasharray:none"
       id="path8559"
       sodipodi:cx="295.71429"
       sodipodi:cy="356.64789"
       sodipodi:rx="87.14286"
       sodipodi:ry="67.14286"
       d="m 382.85715,356.64789 a 87.14286,67.14286 0 1 1 -174.28572,0 87.14286,67.14286 0 1 1 174.28572,0 z"
       transform="matrix(0.43583787,0,0,0.43583787,48.186716,124.59127)" />
    <path
       sodipodi:type="arc"
       style="fill:none;stroke:#000000;stroke-width:0.39199999;stroke-miterlimit:4;stroke-opacity:1;stroke-dasharray:none"
       id="path8561"
       sodipodi:cx="288.57144"
       sodipodi:cy="550.93359"
       sodipodi:rx="105.71429"
       sodipodi:ry="95.714287"
       d="m 394.28573,550.93359 a 105.71429,95.714287 0 1 1 -211.42858,0 105.71429,95.714287 0 1 1 211.42858,0 z"
       transform="matrix(0.43583787,0,0,0.43583787,48.186716,124.59127)" />
    <path
       sodipodi:type="arc"
       style="fill:none;stroke:#000000;stroke-width:0.39199999;stroke-miterlimit:4;stroke-opacity:1;stroke-dasharray:none"
       id="path8563"
       sodipodi:cx="442.85715"
       sodipodi:cy="509.50504"
       sodipodi:rx="105.71429"
       sodipodi:ry="80"
       d="m 548.57143,509.50504 a 105.71429,80 0 1 1 -211.42857,0 105.71429,80 0 1 1 211.42857,0 z"
       transform="matrix(0.43583787,0,0,0.43583787,48.186716,124.59127)" />
    <text
       xml:space="preserve"
       style="font-size:12.20346069px;font-style:normal;font-weight:normal;line-height:125%;letter-spacing:0px;word-spacing:0px;fill:#000000;fill-opacity:1;stroke:none;font-family:Sans"
       x="100.48726"
       y="259.48529"
       id="text8565"
       sodipodi:linespacing="125%"><tspan
         sodipodi:role="line"
         id="tspan8567"
         x="100.48726"
         y="259.48529">set1</tspan></text>
    <text
       xml:space="preserve"
       style="font-size:12.20346069px;font-style:normal;font-weight:normal;line-height:125%;letter-spacing:0px;word-spacing:0px;fill:#000000;fill-opacity:1;stroke:none;font-family:Sans"
       x="96.751511"
       y="332.95511"
       id="text8569"
       sodipodi:linespacing="125%"><tspan
         sodipodi:role="line"
         id="tspan8571"
         x="96.751511"
         y="332.95511">set2</tspan></text>
    <text
       sodipodi:linespacing="125%"
       id="text8573"
       y="268.20203"
       x="165.24033"
       style="font-size:12.20346069px;font-style:normal;font-weight:normal;line-height:125%;letter-spacing:0px;word-spacing:0px;fill:#000000;fill-opacity:1;stroke:none;font-family:Sans"
       xml:space="preserve"><tspan
         y="268.20203"
         x="165.24033"
         id="tspan8575"
         sodipodi:role="line">set4</tspan></text>
    <text
       xml:space="preserve"
       style="font-size:12.20346069px;font-style:normal;font-weight:normal;line-height:125%;letter-spacing:0px;word-spacing:0px;fill:#000000;fill-opacity:1;stroke:none;font-family:Sans"
       x="208.8241"
       y="305.55957"
       id="text8577"
       sodipodi:linespacing="125%"><tspan
         sodipodi:role="line"
         id="tspan8579"
         x="208.8241"
         y="305.55957">set5</tspan></text>
    <text
       sodipodi:linespacing="125%"
       id="text8581"
       y="359.10538"
       x="246.18164"
       style="font-size:12.20346069px;font-style:normal;font-weight:normal;line-height:125%;letter-spacing:0px;word-spacing:0px;fill:#000000;fill-opacity:1;stroke:none;font-family:Sans"
       xml:space="preserve"><tspan
         y="359.10538"
         x="246.18164"
         id="tspan8583"
         sodipodi:role="line">set6</tspan></text>
    <text
       xml:space="preserve"
       style="font-size:12.20346069px;font-style:normal;font-weight:normal;line-height:125%;letter-spacing:0px;word-spacing:0px;fill:#000000;fill-opacity:1;stroke:none;font-family:Sans"
       x="162.74983"
       y="377.78415"
       id="text8585"
       sodipodi:linespacing="125%"><tspan
         sodipodi:role="line"
         id="tspan8587"
         x="162.74983"
         y="377.78415">set3</tspan></text>
    <path
       style="fill:#ff0000;fill-opacity:1;stroke:none"
       d="m 139.70333,283.08982 c -1.07646,-6.37151 1.90113,-14.65903 7.15432,-19.91264 2.729,-2.72921 9.1334,-7.42765 10.12457,-7.42765 0.2614,0 0.47528,1.08249 0.47528,2.40552 0,9.27399 -4.84458,18.5462 -12.6944,24.29625 -4.76809,3.49265 -4.58154,3.4691 -5.05977,0.63852 z"
       id="path9116"
       inkscape:connector-curvature="0" />
    <path
       style="fill:#ff0000;fill-opacity:1;fill-rule:nonzero;stroke:#000000;stroke-width:0.24406922;stroke-miterlimit:4;stroke-opacity:1;stroke-dasharray:none"
       d="m 213.31872,373.79286 c -10.27504,-6.18731 -16.46916,-14.9134 -17.63652,-24.84579 -0.48817,-4.15353 0.75226,-10.61691 1.9494,-10.15752 2.43339,0.93378 6.02256,1.62785 9.63594,1.8634 l 4.04707,0.26383 2.55385,4.09552 c 3.94239,6.32225 5.48615,11.86061 5.49028,19.6967 0.003,6.06374 -0.94153,11.20726 -2.05845,11.20726 -0.25042,0 -2.04213,-0.95553 -3.98157,-2.1234 l 0,0 z"
       id="path9120"
       inkscape:connector-curvature="0" />
    <path
       style="fill:#ff0000;fill-opacity:1;fill-rule:nonzero;stroke:#000000;stroke-width:0.24406922;stroke-miterlimit:4;stroke-opacity:1;stroke-dasharray:none"
       d="m 191.95388,334.93703 c -4.42789,-2.86189 -11.42403,-10.28696 -9.97309,-10.58454 1.6796,-0.34449 8.58967,1.72159 13.24205,3.95929 l 4.49429,2.16167 -1.67277,3.38153 c -0.92002,1.85984 -1.83947,3.39885 -2.04321,3.42001 -0.20374,0.0212 -2.02501,-1.03091 -4.04727,-2.33796 l 0,0 z"
       id="path9122"
       inkscape:connector-curvature="0" />
    <path
       style="fill:#ff0000;fill-opacity:1;fill-rule:nonzero;stroke:#000000;stroke-width:0.24406922;stroke-miterlimit:4;stroke-opacity:1;stroke-dasharray:none"
       d="m 200.87555,338.92171 c -1.63215,-0.43902 -3.11902,-0.94969 -3.30414,-1.13481 -0.36993,-0.36994 2.09213,-5.92167 2.82775,-6.37631 0.56576,-0.34966 9.35888,6.97971 9.35888,7.80093 0,0.83516 -5.34903,0.66063 -8.88249,-0.28981 z"
       id="path9124"
       inkscape:connector-curvature="0" />
  </g>
</svg>
