<?xml version="1.0" encoding="UTF-8" standalone="no"?>
<!-- Created with Inkscape (http://www.inkscape.org/) -->

<svg
   xmlns:dc="http://purl.org/dc/elements/1.1/"
   xmlns:cc="http://creativecommons.org/ns#"
   xmlns:rdf="http://www.w3.org/1999/02/22-rdf-syntax-ns#"
   xmlns:svg="http://www.w3.org/2000/svg"
   xmlns="http://www.w3.org/2000/svg"
   xmlns:sodipodi="http://sodipodi.sourceforge.net/DTD/sodipodi-0.dtd"
   xmlns:inkscape="http://www.inkscape.org/namespaces/inkscape"
   version="1.1"
   width="178.66"
   height="210.06"
   id="svg2"
   xml:space="preserve"
   inkscape:version="0.48.2 r9819"
   sodipodi:docname="zombies.svg"><sodipodi:namedview
     pagecolor="#ffffff"
     bordercolor="#666666"
     borderopacity="1"
     objecttolerance="10"
     gridtolerance="10"
     guidetolerance="10"
     inkscape:pageopacity="0"
     inkscape:pageshadow="2"
     inkscape:window-width="913"
     inkscape:window-height="638"
     id="namedview9984"
     showgrid="false"
     fit-margin-top="0"
     fit-margin-left="0"
     fit-margin-right="0"
     fit-margin-bottom="0"
     inkscape:zoom="0.28748933"
     inkscape:cx="331.10626"
     inkscape:cy="-206.38676"
     inkscape:window-x="0"
     inkscape:window-y="0"
     inkscape:window-maximized="0"
     inkscape:current-layer="g14" /><metadata
     id="metadata8"><rdf:RDF><cc:Work
         rdf:about=""><dc:format>image/svg+xml</dc:format><dc:type
           rdf:resource="http://purl.org/dc/dcmitype/StillImage" /><dc:title></dc:title></cc:Work></rdf:RDF></metadata><defs
     id="defs6"><clipPath
       id="clipPath18"><path
         d="m 0,0 5329.72,0 0,6567 L 0,6567 0,0 z"
         inkscape:connector-curvature="0"
         id="path20" /></clipPath></defs><g
     id="g14"
     transform="matrix(0.125,0,0,-0.125,-2,826.89679)"><path
       style="fill:#231f20;fill-opacity:1;fill-rule:nonzero;stroke:none"
       id="path22"
       inkscape:connector-curvature="0"
       d="m 907.8425,6505.2962 -176.88101,-24.0469 -219.37254,-47.1014 -46.77478,-28.9889 -15.15224,-13.1755 -34.91345,-25.3634 -16.46831,-29.6423 -25.36493,-13.8338 0,-36.564 -27.33781,-22.3963 -27.33929,-20.7555 -28.65584,-35.2426 -60.6085,-30.6346 -55.00721,-20.7506 -36.23197,-56.6563 35.90185,-7.9043 117.92018,-3.2914 3.29337,-26.3558 -5.92797,-60.9352 -13.17544,-24.7051 4.28129,-15.8086 -10.20925,-65.8772 -5.92944,-13.8337 4.6114,0 -1.64865,-47.1015 12.18753,68.8444 8.89416,-25.6926 -1.31803,36.8883 20.42144,24.7051 -10.86901,38.2098 24.70469,-8.2334 4.94153,22.0671 15.81003,14.8261 -11.19863,9.8791 -14.16384,-1.6457 c -0.98841,-2.638 -1.97484,-3.6255 -3.623,-3.6255 -1.31853,0 -2.30497,0.9875 -3.29337,3.6255 -0.98791,2.304 -1.32,4.9371 -1.32,8.2334 0,3.6255 1.32,3.2963 3.95312,-0.9874 -0.98447,8.8917 -0.65828,13.1705 0.66025,13.1705 1.64816,0 2.63459,-0.9825 3.623,-3.2914 0.98988,-2.304 1.64619,-5.2662 1.64619,-8.8917 0,-3.2963 -0.65631,-5.9294 -1.64619,-8.2334 l 14.16384,1.6457 c -2.63705,9.884 -1.64668,21.4089 2.30448,34.5843 l 32.61093,16.4718 c 9.22231,-0.3341 16.46831,-5.9344 21.73996,-15.8135 l 2.30448,19.434 -8.23637,20.4264 5.27165,-10.2181 10.21268,-4.9371 -1.31852,11.2006 71.80762,23.7177 15.47844,9.2209 18.44708,-6.5878 10.21072,-17.13 13.17446,-46.114 2.96718,13.5045 c 2.63312,6.5878 7.57514,7.5801 14.16286,3.6206 l 0.98742,-17.1251 9.22084,-2.9623 5.27116,-7.5801 16.14262,-5.5953 5.26624,-46.1141 4.94202,2.2991 c 0,1.3215 0.98742,0.9923 2.63804,-0.6534 -0.32915,3.2963 -0.32915,5.2663 0.32914,5.2663 0.98742,0 1.6457,-0.3243 1.97484,-1.3166 0.65828,-0.6534 0.98742,-1.9748 0.98742,-3.2963 0,-1.3117 -0.32914,-2.2991 -0.98742,-3.2914 -0.32914,-0.6583 -0.98742,-1.3166 -1.97484,-1.3166 -0.65829,0 -1.31657,0.6583 -1.97976,1.3166 -0.32914,0.9923 -0.98742,1.9797 -0.98742,3.2914 l -4.94202,-2.2991 4.28374,-11.5297 15.47942,10.5374 19.43402,-18.7708 14.16777,-38.2147 24.37604,-39.5214 10.86654,-3.6255 c -0.32914,-12.188 4.94202,-25.0343 16.46685,-38.2097 -8.23342,18.1174 -9.87913,26.3509 -4.27883,25.3634 l -0.65828,-1.3165 6.25858,9.55 c -1.97484,-15.4795 -0.99233,-24.3712 3.29141,-27.0092 l 0,11.8589 12.18801,16.4717 12.18802,-119.9004 -27.00916,-125.8299 -33.92602,-45.4508 -4.94202,-21.0797 4.28374,0 -3.29631,-8.5675 1.6457,-9.884 -9.87913,-5.2663 -6.91686,-5.5954 19.10488,-3.6254 c -1.97975,-13.8338 -9.22575,-23.7178 -21.40886,-29.6472 l -4.61288,2.638 -1.32147,-12.5172 16.47176,11.5298 c -39.19718,-52.7018 -67.85204,-105.7376 -86.62778,-159.4268 l -3.62546,-22.4012 -51.0536,-97.8234 -5.59735,-35.5767 -23.06046,-12.8463 13.83421,-13.8337 -7.57416,-15.4794 1.97436,-13.1754 -24.37457,-32.6095 -0.98644,-12.8512 -15.15224,-19.4291 -12.84728,-32.9386 1.64815,-8.5675 -9.88256,-30.9637 14.82409,-26.0218 23.38665,-11.5248 c 26.67904,-10.5423 52.70225,-15.1503 78.06522,-13.8337 l 19.10488,9.5549 5.59538,15.4794 -2.96226,14.8211 12.8463,19.7681 -3.29632,26.346 3.29632,21.7429 13.17544,17.1251 c 1.31656,8.5675 0.65828,18.4417 -2.96718,29.6472 l 5.6003,5.5954 c 5.92944,8.5675 15.48434,8.8966 28.98891,0.9923 l 2.96227,23.3837 -6.25858,29.3181 22.73033,27.9966 50.39778,79.7109 96.84095,169.635 27.33339,30.9637 31.95609,48.4181 0.32423,28.6548 2.96718,5.2761 -5.92944,7.9043 5.92944,29.318 37.54656,100.1275 3.9546,58.302 44.79747,75.103 4.61288,-59.9527 c 1.6457,-26.0168 7.24109,-48.7471 16.46684,-68.5103 l 20.75059,-18.4417 -6.58281,-54.3524 8.8917,-7.9042 24.0469,-68.8395 -4.28374,-23.7178 c 2.96718,-15.4843 9.88406,-26.0217 20.75056,-31.6269 l -5.276,-37.8806 22.4061,-79.7011 -6.2586,-36.5739 14.492,-69.1686 6.2586,-15.8037 -5.2712,-1.6457 5.2712,-9.884 6.2585,-2.3138 6.9169,-24.0371 -4.6129,3.2963 9.2209,-20.7554 -4.2789,-16.1427 6.5878,6.9218 c 3.6205,-8.9015 1.6457,-17.7883 -5.6003,-26.6898 l 14.8211,15.1601 -3.9546,-37.5515 c -4.2788,-11.2006 -5.2662,-22.0721 -2.2991,-32.9386 l 43.8052,-18.1175 10.2132,-22.7303 38.2097,-25.0343 46.4432,-2.9623 c 18.4417,3.2963 31.288,7.2411 38.2048,11.8589 l 5.2712,17.4592 -10.8666,14.826 -5.6052,22.3914 -21.4088,22.0721 -27.3383,36.8882 -17.1301,36.5592 1.9798,10.5472 -5.2712,19.7632 -7.246,78.3894 5.2712,12.1929 2.304,35.2426 -14.1629,10.8715 7.9092,15.4794 -6.2586,76.4146 0.9874,35.5816 -7.5751,16.7959 -14.826,77.4021 -4.9421,43.1567 0.9875,38.5339 -4.2838,74.4447 5.6003,75.4272 6.5877,13.1754 0.9924,6.9169 11.5297,-9.8791 5.2663,-6.5927 -9.2209,36.8932 17.7834,106.0618 5.2712,18.1175 -21.738,27.6674 -1.3166,24.0469 -18.1125,10.8666 -6.5927,-5.9246 -1.3165,15.1503 -19.434,11.2006 -17.4641,66.5355 -45.78,79.0526 -24.3711,72.7941 -21.4089,195.3276 -81.0324,23.3886" /><path
       style="fill:#231f20;fill-opacity:1;fill-rule:nonzero;stroke:none"
       id="path24"
       inkscape:connector-curvature="0"
       d="m 977.34516,6489.4827 c -1.97976,0 -3.62546,1.3166 -4.61288,4.6129 0,0 -0.65828,-0.6583 -1.31656,-1.3165 -0.32914,0.6582 -0.32914,1.3165 -0.99233,1.9748 l 1.31656,-12.8463 -12.84139,23.7178 -2.3089,-19.4341 3.9546,2.9623 c 0,0.6583 0,1.6457 0,2.638 0,0.9875 0,1.6457 0,2.6332 0.65828,0.6582 0.65828,0.9874 1.31656,0.9874 0.32914,0 0.98742,-0.3292 0.98742,-0.9874 0,-0.3292 0,-0.6583 -0.65828,-0.9875 0.65828,-0.6582 1.31656,-0.9874 1.31656,-1.6457 0,-0.9923 -0.32914,-1.9797 -0.65828,-2.638 0,-0.6583 -0.65828,0.3291 -1.6457,3.2963 0,-2.9672 0,-3.9546 -0.65828,-3.2963 l -3.9546,-2.9623 -70.81921,-19.7631 101.78297,-182.1522 28.65488,9.55 6.2635,-17.1251 18.7708,-20.0923 3.9546,-26.0267 30.6346,-31.288 c -11.8638,17.4592 -18.1224,31.288 -18.7757,42.8178 3.9497,-3.6255 7.9043,-3.9497 11.2006,-1.3166 -12.5221,13.8337 -24.3761,29.3181 -35.5767,46.4432 4.9421,3.2963 7.246,7.5751 6.9169,13.1754 l 23.0546,-39.5263 -10.8666,40.8478 19.1049,41.4962 16.4718,1.9798 17.1251,14.8211 10.2082,19.7632 22.7304,-24.7052 22.4012,-10.8665 19.0999,-0.6583 6.5878,-12.188 -1.3166,-10.2083 11.5248,-13.1754 10.2132,-5.6052 7.9092,-8.5626 17.7834,-17.1251 13.1754,-10.2132 12.1881,4.2837 -2.6332,10.2083 18.7709,10.8715 17.464,-8.2335 8.2286,-11.5297 -1.3166,-30.3055 -7.5751,-25.6877 0.3291,-25.3634 c 6.9218,-10.8715 12.8512,-9.8841 18.4466,2.6331 l 23.0595,32.2754 30.6248,-19.7582 c -4.9273,-2.304 -5.9197,-6.5878 -2.9525,-12.8463 l 5.2663,-5.2712 11.1956,2.9672 9.5599,-12.8512 c -3.6304,-8.5626 -2.6381,-14.158 3.9496,-16.4669 1.3166,-13.1754 6.912,-21.4138 17.4543,-25.6926 9.884,-2.3089 17.7883,-0.6583 22.3963,3.9546 l -8.2334,33.926 1.3264,34.9184 -21.0896,64.5557 c -6.2586,22.0672 -15.8036,39.5263 -28.9889,51.7144 l -16.8009,17.7883 -14.4871,13.1754 2.304,9.2209 -3.2914,15.4843 -27.9966,39.5214 -43.1518,23.3886 4.2789,12.5172 -78.7186,30.9637 -57.6438,12.8463 -28.984,-4.942 -28.6598,-11.2006 -34.5843,-1.9748 -11.2006,-8.8917 -55.66891,0.9874 c 1.65061,8.8917 3.95459,15.4794 6.26349,20.7506 l 0,1.3165 -0.33406,-1.6457 -6.25366,-4.6129" /><path
       style="fill:#231f20;fill-opacity:1;fill-rule:nonzero;stroke:none"
       id="path26"
       inkscape:connector-curvature="0"
       d="m 819.56411,6416.6887 -3.94968,8.8917 c 0.98742,30.6395 -13.17544,67.1987 -42.48859,110.0213 -6.26349,27.0042 -30.63952,45.78 -73.12811,55.664 -69.49774,-10.8714 -111.00381,-29.9763 -125.16667,-57.6438 -3.29632,-14.492 -4.28374,-27.9965 -1.97484,-41.172 l -5.92944,-42.4935 6.58772,-10.2082 -6.58772,-23.0595 252.63733,0" /><path
       style="fill:#231f20;fill-opacity:1;fill-rule:nonzero;stroke:none"
       id="path28"
       inkscape:connector-curvature="0"
       d="m 698.68117,6596.8611 c 0,-3.2914 1.31656,-6.5828 3.62546,-9.55 l -11.2006,11.8589 6.25858,-7.9043 c -0.32914,-4.942 0.65828,-9.5549 2.30398,-13.8337 l 10.20827,0 -6.91195,1.6457 c 3.62054,5.9294 8.23342,10.5423 14.492,13.8337 l -12.8463,-4.6129 c -2.96717,1.9798 -4.94202,4.6129 -5.92944,8.5626" /><path
       style="fill:#231f20;fill-opacity:1;fill-rule:nonzero;stroke:none"
       id="path30"
       inkscape:connector-curvature="0"
       d="m 676.94317,6579.4068 16.1377,5.2712 c 2.96227,5.6003 -11.52482,6.5877 -43.14686,3.2914 -5.60521,-2.9623 -10.87146,-4.2788 -16.47175,-3.9546 -4.60797,-3.9448 -9.22576,-5.9245 -14.16287,-5.9245 l -10.87145,-4.942 -22.06714,-1.6457 26.02173,-2.304 -17.78831,-9.8841 c 8.56256,4.2838 15.81347,6.5878 20.75058,5.9295 28.33063,14.1628 48.74716,18.7708 61.59837,14.1628" /><path
       style="fill:#231f20;fill-opacity:1;fill-rule:nonzero;stroke:none"
       id="path32"
       inkscape:connector-curvature="0"
       d="m 34.964798,6003.308 c -1.648389,-13.8337 5.269459,-16.1426 21.07979,-5.9294 L 34.964798,5976.9523 32,5968.7188 c 4.611266,-6.9168 11.529148,-8.8917 20.09343,-6.2536 18.115001,12.5122 35.573539,27.9965 53.68854,46.114 l -49.737382,-64.5606 c 5.601477,-16.4718 13.175587,-23.0595 23.386405,-19.7681 l 54.678667,68.5201 -29.97388,-83.0072 c 0,-6.5877 3.29484,-10.8715 10.54084,-13.8337 8.89072,0.9825 16.14016,6.2586 22.39825,16.1377 l 22.06763,54.3474 9.55293,17.7884 24.70469,14.1628 16.79844,-34.5843 3.623,-18.7757 5.26968,-6.5877 c 18.11893,-10.8715 26.35285,-7.5752 25.03285,9.5499 l -7.90232,31.6221 c 0,2.638 -1.97828,6.5877 -5.92944,10.8714 2.96472,7.9043 4.28079,17.1301 2.6346,27.0092 1.64619,8.2383 1.64619,16.4718 1.64619,25.0343 6.25809,17.7883 12.84777,34.5843 19.76365,50.3929 l -57.64181,41.8352 -49.40741,-20.0923 c -13.50752,-11.5297 -25.03677,-28.6549 -34.25761,-51.0561 l -2.63657,-12.5171 -62.583039,-36.2349 -12.845533,-11.5249" /></g></svg>